<svg
    viewBox="0 0 621 155"
    className="h-10 w-auto"
    xmlns="http://www.w3.org/2000/svg"
  >

<path d="M203.085 61.4389C204.262 62.5699 204.5 63.2119 204.5 65.2619C204.5 70.3029 201.851 73.1359 197.135 73.1399C194.603 73.1419 194.197 72.9239 184.385 66.2949C178.81 62.5289 163.337 52.1019 150 43.1249C136.663 34.1469 122.507 24.5919 118.543 21.8899C114.579 19.1879 111.044 16.9769 110.687 16.9769C110.329 16.9769 103.433 21.3499 95.361 26.6939C81.19 36.0779 78.002 38.0609 77.15 38.0189C76.93 38.0089 76.225 36.9169 75.584 35.5939C74.942 34.2699 73.332 31.7399 72.006 29.9719C70.68 28.2039 69.688 26.6049 69.803 26.4189C70.451 25.3679 106.62 1.11288 108.464 0.49288C110.416 -0.16312 110.921 -0.163123 112.714 0.485877C114.42 1.10288 149.471 24.5919 152.106 26.8839C152.577 27.2939 153.301 27.4989 153.716 27.3399C154.332 27.1029 154.454 26.0079 154.387 21.2829C154.274 13.3219 154.119 13.4669 162.791 13.4669C172.039 13.4669 171.493 12.5599 171.526 27.9519C171.534 31.8989 171.542 35.8459 171.55 39.7939C172.75 40.5729 173.95 41.3519 175.151 42.1319C183.567 47.5969 201.782 60.1869 203.085 61.4389Z" fill="#56BF30"/>
<path d="M168.5 71.1359C168.599 70.2579 168.697 69.3809 168.796 68.5029C168.894 67.6249 168.993 66.7479 169.091 65.8699C173.894 68.9629 178.697 72.0549 183.5 75.1479C183.489 87.6389 183.478 100.13 183.466 112.622C183.447 134.957 183.245 150.354 182.5 151.371C182.209 151.533 181.916 151.696 181.625 151.857C181.144 152.125 178.764 152.35 176.337 152.359C172.127 152.373 171.856 152.307 170.478 150.924C169.995 150.441 169.514 149.958 169.032 149.474C168.854 123.361 168.678 97.2489 168.5 71.1359Z" fill="#56BF30"/>
<path d="M37.045 123.289C37.562 120.117 38.56 113.234 39.263 107.994C39.966 102.753 40.67 97.7319 40.827 96.8359C40.922 96.2929 41.017 95.7489 41.112 95.2059C42.653 95.2059 44.195 95.2059 45.736 95.2059C47.278 95.2059 48.82 95.2059 50.361 95.2059C50.642 97.0869 50.923 98.9669 51.204 100.848C51.668 103.951 52.94 112.325 54.029 119.456C54.689 123.778 55.349 128.1 56.01 132.422C54.856 133.7 53.703 134.977 52.55 136.255C50.647 138.363 48.33 140.82 47.401 141.713C46.838 142.255 46.275 142.797 45.712 143.339C44.708 142.295 43.705 141.252 42.702 140.209C36.741 134.012 35.995 132.972 36.053 130.935C36.082 129.901 36.528 126.461 37.045 123.289Z" fill="#FAFCFC"/>
<path d="M182.5 151.371C183.245 150.354 183.447 134.957 183.466 112.622C183.478 100.13 183.489 87.6389 183.5 75.1479C184.349 75.8319 184.474 88.3719 184.385 113.239C184.259 148.159 184.195 150.537 183.375 150.94C183.084 151.084 182.791 151.228 182.5 151.371Z" fill="#F4F9EF"/>
<path d="M548.665 106.239C548.774 106.928 548.894 109.028 548.932 110.904C549.131 120.883 544.487 128.471 535.564 132.745C531.923 134.489 531.512 134.572 526.5 134.568C521.576 134.564 521.039 134.46 517.849 132.9C513.726 130.883 509.148 126.544 507.316 122.917C503.72 115.799 503.629 106.502 507.086 99.3019C508.442 96.4779 512.953 91.6109 515.726 89.9819C521.778 86.4249 530.381 86.2939 536.946 89.6599C539.562 91.0019 543.698 94.7659 545.245 97.2129C546.414 99.0609 548.328 104.114 548.665 106.239ZM513.793 103.538C512.64 107.18 512.945 116.254 514.323 119.303C517.443 126.201 524.781 129.057 532.215 126.267C537.712 124.205 540.553 119.064 540.574 111.14C540.589 105.982 539.976 103.551 537.868 100.409C534.457 95.3239 529.064 93.3579 523.022 94.9989C520.316 95.7329 519.316 96.3289 517.164 98.4869C515.386 100.27 514.325 101.86 513.793 103.538Z" fill="#56BF30"/>
<path d="M513.793 103.538C514.325 101.86 515.386 100.27 517.164 98.4869C519.316 96.3289 520.316 95.7329 523.022 94.9989C529.064 93.3579 534.457 95.3239 537.868 100.409C539.976 103.551 540.589 105.982 540.574 111.14C540.553 119.064 537.712 124.205 532.215 126.267C524.781 129.057 517.443 126.201 514.323 119.303C512.945 116.254 512.64 107.18 513.793 103.538Z" fill="#FAFCFC"/>
<path d="M583.534 110.25C583.727 111.216 583.911 117.027 583.942 123.163C583.962 126.883 583.981 130.602 584 134.321C582.761 134.321 581.523 134.321 580.284 134.321C579.045 134.321 577.806 134.321 576.567 134.321C576.514 130.518 576.462 126.715 576.409 122.913C576.271 113.03 576.129 111.28 575.342 109.835C573.13 105.769 566.219 105.705 562.851 109.719C562.401 110.256 561.951 110.793 561.5 111.33C561.497 114.786 561.495 118.242 561.493 121.698C561.49 127.399 561.351 132.572 561.185 133.193C560.907 134.234 560.597 134.321 557.192 134.321C555.961 134.321 554.731 134.321 553.5 134.321C553.5 128.721 553.5 123.122 553.5 117.522C553.5 111.922 553.5 106.322 553.5 100.723C554.75 100.723 556 100.723 557.25 100.723C558.5 100.723 559.75 100.723 561 100.723C561 101.298 561 101.873 561 102.448C561 104.732 561.657 105.033 563.221 103.464C566.102 100.575 571.174 99.4819 575.571 100.803C579.389 101.951 582.648 105.817 583.534 110.25Z" fill="#56BF30"/>
<path d="M620.217 111.69C620.61 112.966 620.946 115.422 620.965 117.146C620.976 118.19 620.989 119.235 621 120.28C616.927 120.28 612.853 120.28 608.779 120.28C601.461 120.28 596.439 120.474 596.26 120.764C595.688 121.693 598.032 125.302 600.098 126.673C601.88 127.856 602.688 128.053 605.758 128.053C608.929 128.053 609.637 127.866 611.96 126.418C614.749 124.68 614.744 124.679 617.63 126.98C618.256 127.479 618.883 127.979 619.51 128.479C619.143 128.87 618.777 129.262 618.41 129.653C615.379 132.889 608.797 135.135 603.735 134.662C599.718 134.285 596.513 132.836 593.549 130.056C590.393 127.095 588.911 123.697 588.611 118.733C588.001 108.643 594.055 101.213 603.593 100.346C611.082 99.6649 617.968 104.364 620.217 111.69ZM596.848 111.328C595.375 114.327 595.2 114.262 604.75 114.262C611.611 114.262 613.5 114.121 613.5 113.608C613.5 112.069 610.436 108.166 608.633 107.411C604.526 105.69 598.66 107.639 596.848 111.328Z" fill="#56BF30"/>
<path d="M596.848 111.328C598.66 107.639 604.526 105.69 608.633 107.411C610.436 108.166 613.5 112.069 613.5 113.608C613.5 114.121 611.611 114.262 604.75 114.262C595.2 114.262 595.375 114.327 596.848 111.328Z" fill="#FAFCFC"/>
<path d="M299.459 100.723C303.654 100.723 304 100.937 304 103.534C304 106.113 304.414 106.277 305.887 104.279C306.478 103.477 308.213 102.206 309.744 101.456C312.202 100.25 312.947 100.118 316.138 100.327C320.614 100.621 323.411 101.956 326.601 105.324C329.733 108.631 331.136 112.328 331.134 117.271C331.129 127.466 324.611 134.321 314.921 134.321C311.063 134.321 308.459 133.445 306.38 131.448C304.702 129.836 304.255 130.21 304.235 133.237C304.227 134.523 304.17 138.226 304.11 141.467C304.073 143.431 304.037 145.395 304 147.359C302.75 147.359 301.5 147.359 300.25 147.359C299 147.359 297.75 147.359 296.5 147.359C296.5 139.587 296.5 131.814 296.5 124.041C296.5 116.268 296.5 108.495 296.5 100.723C297.486 100.723 298.473 100.723 299.459 100.723ZM321.927 112.341C320.617 109.686 317.994 107.86 314.873 107.432C312.927 107.164 312.057 107.341 309.74 108.479C305.762 110.43 304.244 112.86 304.269 117.234C304.293 121.565 305.661 124.258 308.763 126.081C310.74 127.243 311.455 127.388 314.4 127.221C318.463 126.991 320.654 125.663 322.048 122.586C323.356 119.697 323.302 115.126 321.927 112.341Z" fill="#1B3B9E"/>
<path d="M241.178 101.433C241.55 101.29 243.294 101.241 245.053 101.324C246.118 101.374 247.184 101.425 248.25 101.475C248.2 102.003 248.149 102.531 248.099 103.059C247.906 105.093 248.735 105.607 249.736 104.073C251.033 102.089 255.019 100.221 257.959 100.221C261.358 100.221 263.341 101.118 265.674 103.711C266.315 104.424 266.957 105.136 267.599 105.849C268.291 105.17 268.982 104.491 269.674 103.811C272.324 101.209 274.724 100.221 278.394 100.221C283.759 100.221 288.161 103.38 289.492 108.185C289.769 109.183 289.995 115.359 289.997 121.91C289.998 125.88 289.999 129.849 290 133.82C288.764 133.82 287.527 133.82 286.291 133.82C285.055 133.82 283.819 133.82 282.583 133.82C282.527 130.093 282.472 126.365 282.416 122.638C282.23 110.112 282.032 109.337 278.659 107.924C275.699 106.683 271.654 108.089 270.139 110.886C269.365 112.316 269.278 113.77 269.409 123.185C269.459 126.744 269.509 130.303 269.558 133.863C268.257 133.814 266.955 133.765 265.654 133.716C264.353 133.667 263.051 133.618 261.75 133.569C261.666 129.892 261.584 126.214 261.5 122.536C261.363 116.469 261.048 111.166 260.8 110.752C258.255 106.491 253.416 106.175 250.025 110.048C249.517 110.629 249.009 111.209 248.5 111.79C248.5 115.462 248.5 119.133 248.5 122.805C248.5 126.477 248.5 130.148 248.5 133.82C247.166 133.82 245.834 133.82 244.5 133.82C243.166 133.82 241.834 133.82 240.5 133.82C240.5 128.465 240.5 123.111 240.5 117.757C240.5 104.704 240.627 101.645 241.178 101.433Z" fill="#1B3B9E"/>
<path d="M204 88.1859C214.416 88.2699 224.834 88.3529 235.25 88.4359C235.24 89.6489 235.228 90.8598 235.218 92.0718C235.207 93.2838 235.197 94.4959 235.186 95.7079C231.322 95.7079 227.457 95.7079 223.593 95.7079C219.728 95.7079 215.865 95.7079 212 95.7079C212 97.6299 212 99.5529 212 101.475C212 103.397 212 105.32 212 107.242C215.584 107.242 219.166 107.242 222.75 107.242C226.334 107.242 229.916 107.242 233.5 107.242C233.5 108.412 233.5 109.582 233.5 110.752C233.5 111.922 233.5 113.092 233.5 114.262C229.916 114.262 226.334 114.262 222.75 114.262C219.166 114.262 215.584 114.262 212 114.262C212 116.265 212 118.268 212 120.271C212 122.274 212 124.276 212 126.279C215.875 126.324 219.75 126.369 223.625 126.414C227.5 126.459 231.375 126.504 235.25 126.548C235.25 127.718 235.25 128.889 235.25 130.059C235.25 131.228 235.25 132.399 235.25 133.569C230.125 133.61 225 133.653 219.875 133.694C214.75 133.736 209.625 133.778 204.5 133.82C204.486 99.2309 204.373 89.1888 204.24 89.1888C204.161 89.1888 204.08 89.1888 204 89.1888C204 88.8538 204 88.5199 204 88.1859Z" fill="#1B3B9E"/>
<path d="M349.707 111.7C351.436 107.181 354.838 103.448 358.975 101.528C360.808 100.677 362.22 100.472 366.25 100.472C370.702 100.472 371.559 100.624 374.072 101.862C377.517 103.559 380.651 106.87 382.405 110.664C384.186 114.515 384.303 120.828 382.659 124.4C379.191 131.94 370.581 136.015 362.197 134.084C356.704 132.819 353.188 130.027 350.473 124.778C349.031 121.987 348.597 114.597 349.707 111.7ZM375.46 115.047C374.878 112.666 372.947 110.018 370.817 108.677C368.515 107.229 362.894 107.531 360.624 109.226C355.228 113.256 356.096 123.463 362.1 126.596C364.114 127.647 368.313 127.48 370.849 126.249C374.561 124.447 376.567 119.573 375.46 115.047Z" fill="#1B3B9E"/>
<path d="M455.235 112.069C456.684 106.96 461.069 102.361 465.872 100.911C468.943 99.9838 474.288 100.039 477.178 101.026C478.519 101.484 480.686 102.886 482.202 104.276C485.699 107.481 487.092 110.664 487.396 116.143C487.472 117.522 487.549 118.901 487.625 120.28C483.438 120.28 479.25 120.28 475.062 120.28C465.852 120.28 462.5 120.435 462.5 120.863C462.5 121.183 463.059 122.403 463.743 123.573C466.697 128.628 474.03 129.148 480.051 124.728C480.699 124.252 481.285 124.441 483.15 125.727C484.414 126.599 485.597 127.554 485.779 127.849C486.294 128.685 483.567 131.202 480.518 132.706C477.972 133.961 477.269 134.07 471.75 134.07C466.043 134.07 465.62 133.999 463.091 132.593C457.857 129.685 454.856 124.589 454.659 118.274C454.593 116.195 454.851 113.419 455.235 112.069ZM479.048 111.985C477.208 107.867 473.368 106.033 469.019 107.196C465.967 108.012 462.5 111.496 462.5 113.747C462.5 114.115 465.263 114.242 471.226 114.148C474.135 114.103 477.043 114.057 479.952 114.012C479.651 113.336 479.349 112.661 479.048 111.985Z" fill="#1B3B9E"/>
<path d="M420.174 111.677C423.076 103.803 428.682 99.9579 436.75 100.308C439.62 100.433 441.4 100.802 443.05 101.614C447.62 103.862 451.263 108.881 451.777 113.638C451.918 114.947 452.135 116.976 452.258 118.149C452.332 118.859 452.407 119.569 452.481 120.28C448.232 120.28 443.982 120.28 439.734 120.28C435.485 120.28 431.236 120.28 426.986 120.28C427.245 120.901 427.504 121.521 427.763 122.142C428.761 124.54 429.81 125.677 432.105 126.852C435.53 128.606 441.065 127.825 443.858 125.193C444.232 124.841 444.606 124.488 444.98 124.136C445.899 124.749 446.82 125.361 447.74 125.974C449.258 126.985 450.5 128.013 450.5 128.257C450.5 129.047 446.864 131.931 444.603 132.933C439.707 135.106 432.374 135.055 428.001 132.818C425.464 131.519 422.308 128.208 420.944 125.413C419.515 122.484 419.077 114.655 420.174 111.677ZM443.713 112.006C441.985 108.672 439.25 106.74 436.259 106.74C434.24 106.74 431.258 107.855 429.84 109.141C428.99 109.912 427 113.311 427 113.991C427 114.14 430.938 114.262 435.75 114.262C440.562 114.262 444.499 114.093 444.497 113.886C444.495 113.68 444.143 112.833 443.713 112.006Z" fill="#1B3B9E"/>
<path d="M384.391 100.998C384.543 100.846 386.441 100.723 388.609 100.723C389.923 100.723 391.237 100.723 392.551 100.723C392.767 101.266 392.984 101.809 393.199 102.352C393.557 103.248 395.617 108.549 397.779 114.132C399.94 119.715 401.851 124.115 402.024 123.911C402.197 123.707 403.277 120.832 404.423 117.522C405.569 114.212 407.393 109.248 408.473 106.489C409.129 104.818 409.784 103.146 410.439 101.475C411.803 101.426 413.167 101.377 414.531 101.328C417.721 101.214 418.565 101.324 418.36 101.83C418.215 102.186 415.96 107.894 413.348 114.513C410.737 121.132 406.883 130.679 404.783 135.728C402.682 140.777 400.832 145.573 400.669 146.384C400.572 146.876 400.473 147.369 400.375 147.861C398.979 147.861 397.583 147.861 396.188 147.861C393.885 147.861 392.001 147.691 392.001 147.485C392.002 147.278 393.24 144.119 394.751 140.467C396.264 136.813 397.5 133.556 397.5 133.227C397.5 132.702 391.535 118.381 386.009 105.637C384.968 103.237 384.24 101.15 384.391 100.998Z" fill="#1B3B9E"/>
<path d="M321.927 112.341C323.302 115.126 323.356 119.697 322.048 122.586C320.654 125.663 318.463 126.991 314.4 127.221C311.455 127.388 310.74 127.243 308.763 126.081C305.661 124.258 304.293 121.565 304.269 117.234C304.244 112.86 305.762 110.43 309.74 108.479C312.057 107.341 312.927 107.164 314.873 107.432C317.994 107.86 320.617 109.686 321.927 112.341Z" fill="#FAFCFC"/>
<path d="M344 115.767C344 117.271 344 118.775 344 120.28C343.875 120.28 343.75 120.279 343.625 120.279C343.419 120.279 343.206 122.641 343.151 125.529C343.03 131.936 342.652 132.817 340.012 132.817C338.938 132.817 337.927 132.601 337.764 132.338C337.485 131.884 337.443 113.923 337.687 98.3279C337.795 91.3729 337.835 91.1329 339.087 89.8769C340.156 88.8049 340.548 88.6779 341.397 89.1339C342.922 89.9519 343.155 91.8859 343.205 104.066C343.23 110.18 343.419 115.313 344 115.767Z" fill="#1E3DA0"/>
<path d="M375.46 115.047C376.567 119.573 374.561 124.447 370.849 126.249C368.313 127.48 364.114 127.647 362.1 126.596C356.096 123.463 355.228 113.256 360.624 109.226C362.894 107.531 368.515 107.229 370.817 108.677C372.947 110.018 374.878 112.666 375.46 115.047Z" fill="#FAFCFC"/>
<path d="M336 87.1829C338.667 87.1829 341.333 87.1829 344 87.1829C344 91.9469 344 96.7109 344 101.475C344 106.239 344 111.003 344 115.767C343.419 115.313 343.23 110.18 343.205 104.066C343.155 91.8859 342.922 89.9519 341.397 89.1339C340.548 88.6779 340.156 88.8049 339.087 89.8769C337.835 91.1329 337.795 91.3729 337.687 98.3279C337.443 113.923 337.485 131.884 337.764 132.338C337.927 132.601 338.938 132.817 340.012 132.817C342.652 132.817 343.03 131.936 343.151 125.529C343.206 122.641 343.419 120.279 343.625 120.279C343.75 120.279 343.875 120.28 344 120.28C344 124.793 344 129.306 344 133.82C342.667 133.82 341.333 133.82 340 133.82C338.667 133.82 337.333 133.82 336 133.82C336 126.047 336 118.274 336 110.501C336 102.728 336 94.9559 336 87.1829Z" fill="#1B3B9E"/>
<path d="M443.713 112.006C444.143 112.833 444.495 113.68 444.497 113.886C444.499 114.093 440.562 114.262 435.75 114.262C430.938 114.262 427 114.14 427 113.991C427 113.311 428.99 109.912 429.84 109.141C431.258 107.855 434.24 106.74 436.259 106.74C439.25 106.74 441.985 108.672 443.713 112.006Z" fill="#FAFCFC"/>
<path d="M479.048 111.985C479.349 112.661 479.651 113.336 479.952 114.012C477.043 114.057 474.135 114.103 471.226 114.148C465.263 114.242 462.5 114.115 462.5 113.747C462.5 111.496 465.967 108.012 469.019 107.196C473.368 106.033 477.208 107.867 479.048 111.985Z" fill="#FAFCFC"/>
<path d="M204.5 133.82C204.334 118.942 204.166 104.066 204 89.1888C204.08 89.1888 204.161 89.1888 204.24 89.1888C204.373 89.1888 204.486 99.2309 204.5 133.82Z" fill="#0E2482"/>
<path d="M79.5 148.362C78.643 148.697 77.786 149.032 76.928 149.367C67.935 152.882 59.961 154.413 48.912 154.747C36.359 155.127 27.949 153.941 17.75 150.354C12.506 148.509 4.35899 144.372 1.78999 142.247C1.19299 141.754 0.596 141.26 0 140.767C0 137.876 0 134.985 0 132.094C0 122.086 0.744005 116.847 3.186 109.67C5.382 103.217 8.506 97.8599 12.713 93.3339C17.437 88.2499 22.994 84.6059 30.092 81.9349C30.873 81.6419 31.653 81.3479 32.434 81.0539C32.98 81.6999 33.526 82.3449 34.072 82.9909C36.91 86.3419 40.19 89.2989 41.859 90.0089C42.744 90.3849 44.668 90.6929 46.136 90.6929C49.547 90.6929 52.084 89.1399 56.427 84.3889C57.486 83.2309 58.545 82.0729 59.603 80.9139C61.045 81.5039 62.486 82.0919 63.927 82.6819C69.784 85.0759 73.24 87.4869 79 93.1999C79.423 93.5519 79.846 93.9029 80.269 94.2549C80.966 94.8339 82.212 96.6499 83.037 98.2889C83.862 99.9279 84.866 101.372 86 101.725C86.149 102.269 86.297 102.812 86.445 103.355C86.69 104.251 87.579 106.83 88.419 109.085C90.956 115.891 91.604 120.361 91.681 131.591C91.704 134.943 91.727 138.296 91.75 141.649C90.959 142.115 90.166 142.581 89.375 143.047C88.069 143.816 87 144.65 87 145.353C86.125 145.631 85.25 145.909 84.375 146.186C82.931 146.644 81.243 147.321 79.5 148.362ZM37.045 123.289C36.528 126.461 36.082 129.901 36.053 130.935C35.995 132.972 36.741 134.012 42.702 140.209C43.705 141.252 44.708 142.295 45.712 143.339C46.275 142.797 46.838 142.255 47.401 141.713C48.33 140.82 50.647 138.363 52.55 136.255C53.703 134.977 54.856 133.7 56.01 132.422C55.349 128.1 54.689 123.778 54.029 119.456C52.94 112.325 51.668 103.951 51.204 100.848C50.923 98.9669 50.642 97.0869 50.361 95.2059C48.82 95.2059 47.278 95.2059 45.736 95.2059C44.195 95.2059 42.653 95.2059 41.112 95.2059C41.017 95.7489 40.922 96.2929 40.827 96.8359C40.67 97.7319 39.966 102.753 39.263 107.994C38.56 113.234 37.562 120.117 37.045 123.289Z" fill="#1F76E5"/>
<path d="M69.413 44.3119C71.398 54.7549 66.693 65.4589 58.111 70.0259C53.368 72.5489 50.053 73.2759 44.264 73.0609C39.54 72.8849 38.869 72.7279 35.275 70.9469C25.132 65.9189 19.811 55.2609 22.051 44.4569C24.559 32.3599 36.82 23.6579 48.834 25.4499C59.079 26.9789 67.602 34.7899 69.413 44.3119Z" fill="#1F76E5"/>
<path d="M87 145.353C87 144.65 88.069 143.816 89.375 143.047C90.166 142.581 90.959 142.115 91.75 141.649C91.727 138.296 91.704 134.943 91.681 131.591C91.604 120.361 90.956 115.891 88.419 109.085C87.579 106.83 86.69 104.251 86.445 103.355C86.297 102.812 86.149 102.269 86 101.725C86.089 95.3039 86.178 88.8829 86.267 82.4619C86.356 76.0409 86.445 69.6199 86.534 63.1979C87.053 63.0169 87.572 62.8349 88.091 62.6539C89.139 62.2879 98.568 62.1089 116.849 62.1089C141.084 62.1089 144.223 62.1989 145.635 62.9319C146.164 63.2059 146.693 63.4799 147.221 63.7549C147.226 77.0779 147.231 90.4009 147.236 103.724C147.248 136.881 147.133 143.836 146.564 144.524C145.94 145.279 143.218 145.353 87 145.353ZM116.86 72.7429C116.214 72.1349 115.507 71.6369 115.289 71.6369C115.071 71.6369 112.87 73.7809 110.397 76.4009C107.925 79.0209 105.634 81.1649 105.305 81.1649C104.976 81.1649 103.714 80.1499 102.5 78.9089C101.286 77.6669 100.043 76.6519 99.74 76.6519C99.435 76.6519 98.536 77.3339 97.74 78.1669C97.257 78.6719 96.776 79.1769 96.293 79.6819C97.699 81.0989 99.104 82.5169 100.51 83.9339C102.83 86.2719 105.036 88.1859 105.414 88.1859C105.791 88.1859 106.809 87.4489 107.675 86.5469C110.925 83.1659 117.755 75.1029 117.892 74.4879C117.97 74.1369 117.505 73.3519 116.86 72.7429ZM116.964 95.9269C116.452 95.4359 115.94 94.9449 115.428 94.4539C113.787 96.2089 112.146 97.9639 110.505 99.7199C108.864 101.475 107.223 103.23 105.582 104.985C104.688 104.107 103.794 103.23 102.9 102.352C101.425 100.904 99.964 99.7199 99.654 99.7199C99.343 99.7199 98.507 100.414 97.796 101.262C97.365 101.776 96.933 102.289 96.502 102.803C97.71 104.129 98.918 105.455 100.126 106.781C103.834 110.851 104.769 111.503 106.144 110.974C107.009 110.641 118.5 98.3609 118.5 97.7689C118.5 97.5659 117.809 96.7369 116.964 95.9269ZM116.984 120.014C116.478 119.528 115.973 119.042 115.467 118.557C113.844 120.292 112.221 122.027 110.598 123.762C108.974 125.497 107.351 127.232 105.727 128.967C104.897 127.938 104.068 126.909 103.238 125.879C101.87 124.181 100.513 122.79 100.223 122.789C99.933 122.788 98.985 123.523 98.116 124.423C97.589 124.968 97.062 125.512 96.536 126.057C97.877 127.518 99.219 128.979 100.56 130.44C104.685 134.933 105.798 135.515 107.62 134.128C108.691 133.313 118.5 122.162 118.5 121.76C118.5 121.601 117.818 120.815 116.984 120.014ZM138.69 78.0129C138.494 77.8159 134.45 77.6549 129.702 77.6549C122.394 77.6549 120.947 77.7799 120.257 78.4719C119.809 78.9209 119.568 79.6169 119.721 80.0169C119.875 80.4179 120 80.9579 120 81.2169C120 81.4999 123.759 81.6339 129.375 81.5519C132.5 81.5069 135.625 81.4619 138.75 81.4159C138.8 80.9079 138.849 80.4009 138.899 79.8929C138.981 79.0559 138.887 78.2099 138.69 78.0129ZM139.166 102.06C138.983 101.876 134.483 101.725 129.166 101.725C125.945 101.725 122.722 101.725 119.5 101.725C119.5 102.311 119.5 102.895 119.5 103.481C119.5 104.066 119.5 104.651 119.5 105.236C122.834 105.236 126.166 105.236 129.5 105.236C132.834 105.236 136.166 105.236 139.5 105.236C139.5 104.762 139.5 104.288 139.5 103.815C139.5 103.034 139.35 102.244 139.166 102.06ZM138.666 126.131C138.483 125.946 134.208 125.796 129.166 125.796C126.111 125.796 123.055 125.796 120 125.796C120 126.465 120 127.133 120 127.802C120 128.47 120 129.139 120 129.808C123.166 129.808 126.334 129.808 129.5 129.808C132.666 129.808 135.834 129.808 139 129.808C139 129.251 139 128.694 139 128.136C139 127.217 138.85 126.315 138.666 126.131Z" fill="#FAFCFC"/>
<path d="M86 101.725C84.866 101.372 83.862 99.9279 83.037 98.2889C82.212 96.6499 80.966 94.8339 80.269 94.2549C79.846 93.9029 79.423 93.5519 79 93.1999C79.672 63.3139 79.899 59.6259 80.471 58.7619C80.868 58.1619 82.036 57.1969 83.065 56.6169C84.921 55.5709 85.209 55.5629 116.844 55.7009C127.479 55.7479 138.115 55.7939 148.75 55.8409C149.294 56.2299 149.839 56.6199 150.382 57.0089C153.678 59.3659 153.5 56.6659 153.5 104.441C153.5 118.903 153.5 133.364 153.5 147.826C153.001 148.396 152.502 148.967 152.002 149.537C151.179 150.477 149.882 151.505 149.123 151.821C148.122 152.237 138.832 152.358 115.411 152.26C104.634 152.214 93.857 152.169 83.08 152.123C82.658 151.726 82.236 151.328 81.815 150.93C81.118 150.274 80.481 149.427 80.399 149.047C80.317 148.667 80.081 148.358 79.875 148.359C79.75 148.36 79.625 148.361 79.5 148.362C81.243 147.321 82.931 146.644 84.375 146.186C85.25 145.909 86.125 145.631 87 145.353C143.218 145.353 145.94 145.279 146.564 144.524C147.133 143.836 147.248 136.881 147.236 103.724C147.231 90.4009 147.226 77.0779 147.221 63.7549C146.693 63.4799 146.164 63.2059 145.635 62.9319C144.223 62.1989 141.084 62.1089 116.849 62.1089C98.568 62.1089 89.139 62.2879 88.091 62.6539C87.572 62.8349 87.053 63.0169 86.534 63.1979C86.445 69.6199 86.356 76.0409 86.267 82.4619C86.178 88.8829 86.089 95.3039 86 101.725Z" fill="#2FA6DF"/>
<path d="M116.86 72.7429C117.505 73.3519 117.97 74.1369 117.892 74.4879C117.755 75.1029 110.925 83.1659 107.675 86.5469C106.809 87.4489 105.791 88.1859 105.414 88.1859C105.036 88.1859 102.83 86.2719 100.51 83.9339C99.104 82.5169 97.699 81.0989 96.293 79.6819C96.776 79.1769 97.257 78.6719 97.74 78.1669C98.536 77.3339 99.435 76.6519 99.74 76.6519C100.043 76.6519 101.286 77.6669 102.5 78.9089C103.714 80.1499 104.976 81.1649 105.305 81.1649C105.634 81.1649 107.925 79.0209 110.397 76.4009C112.87 73.7809 115.071 71.6369 115.289 71.6369C115.507 71.6369 116.214 72.1349 116.86 72.7429Z" fill="#56BF30"/>
<path d="M116.964 95.9269C117.809 96.7369 118.5 97.5659 118.5 97.7689C118.5 98.3609 107.009 110.641 106.144 110.974C104.769 111.503 103.834 110.851 100.126 106.781C98.918 105.455 97.71 104.129 96.502 102.803C96.933 102.289 97.365 101.776 97.796 101.262C98.507 100.414 99.343 99.7199 99.654 99.7199C99.964 99.7199 101.425 100.904 102.9 102.352C103.794 103.23 104.688 104.107 105.582 104.985C107.223 103.23 108.864 101.475 110.505 99.7199C112.146 97.9639 113.787 96.2089 115.428 94.4539C115.94 94.9449 116.452 95.4359 116.964 95.9269Z" fill="#56BF30"/>
<path d="M116.984 120.014C117.818 120.815 118.5 121.601 118.5 121.76C118.5 122.162 108.691 133.313 107.62 134.128C105.798 135.515 104.685 134.933 100.56 130.44C99.219 128.979 97.877 127.518 96.536 126.057C97.062 125.512 97.589 124.968 98.116 124.423C98.985 123.523 99.933 122.788 100.223 122.789C100.513 122.79 101.87 124.181 103.238 125.879C104.068 126.909 104.897 127.938 105.727 128.967C107.351 127.232 108.974 125.497 110.598 123.762C112.221 122.027 113.844 120.292 115.467 118.557C115.973 119.042 116.478 119.528 116.984 120.014Z" fill="#56BF30"/>
<path d="M138.666 126.131C138.85 126.315 139 127.217 139 128.136C139 128.694 139 129.251 139 129.808C135.834 129.808 132.666 129.808 129.5 129.808C126.334 129.808 123.166 129.808 120 129.808C120 129.139 120 128.47 120 127.802C120 127.133 120 126.465 120 125.796C123.055 125.796 126.111 125.796 129.166 125.796C134.208 125.796 138.483 125.946 138.666 126.131Z" fill="#56BF30"/>
<path d="M139.166 102.06C139.35 102.244 139.5 103.034 139.5 103.815C139.5 104.288 139.5 104.762 139.5 105.236C136.166 105.236 132.834 105.236 129.5 105.236C126.166 105.236 122.834 105.236 119.5 105.236C119.5 104.651 119.5 104.066 119.5 103.481C119.5 102.895 119.5 102.311 119.5 101.725C122.722 101.725 125.945 101.725 129.166 101.725C134.483 101.725 138.983 101.876 139.166 102.06Z" fill="#56BF30"/>
<path d="M138.69 78.0129C138.887 78.2099 138.981 79.0559 138.899 79.8929C138.849 80.4009 138.8 80.9079 138.75 81.4159C135.625 81.4619 132.5 81.5069 129.375 81.5519C123.759 81.6339 120 81.4999 120 81.2169C120 80.9579 119.875 80.4179 119.721 80.0169C119.568 79.6169 119.809 78.9209 120.257 78.4719C120.947 77.7799 122.394 77.6549 129.702 77.6549C134.45 77.6549 138.494 77.8159 138.69 78.0129Z" fill="#56BF30"/>
</svg>